<svg width="689" height="622" viewBox="0 0 689 622" fill="none" xmlns="http://www.w3.org/2000/svg">
<g clip-path="url(#clip0_23643_13314)">
<mask id="mask0_23643_13314" style="mask-type:alpha" maskUnits="userSpaceOnUse" x="-376" y="-178" width="1440" height="800">
<path d="M-376 -178H1064V622H-376V-178Z" fill="url(#paint0_linear_23643_13314)"/>
</mask>
<g mask="url(#mask0_23643_13314)">
<path fill-rule="evenodd" clip-rule="evenodd" d="M93.7946 809.461H47C47 809.461 234.848 231.284 254.75 170.049C264.062 141.398 290.757 122 320.877 122H404.534C429.762 122 450.817 132.656 463.908 150.663C476.99 168.671 480.701 191.713 473.073 215.22C465.434 238.726 458.219 260.916 451.614 281.247C442.696 308.699 417.99 327.614 389.425 329.153C389.425 329.153 389.277 329.105 429.3 205.919C432.834 195.048 431.544 184.408 425.992 176.776C420.451 169.146 411.1 164.63 398.727 164.63H326.941C312.845 164.63 300.354 173.707 295.993 187.115L93.7946 809.461Z" fill="#F0145A"/>
<path fill-rule="evenodd" clip-rule="evenodd" d="M389.416 329.155H295.098L336.656 202.762L383.673 203.04L356.372 286.394L403.249 286.422L389.416 329.155Z" fill="url(#paint1_linear_23643_13314)"/>
<rect x="-376" y="422" width="1440" height="200" fill="url(#paint2_linear_23643_13314)"/>
</g>
</g>
<defs>
<linearGradient id="paint0_linear_23643_13314" x1="-376" y1="-178" x2="468.143" y2="1036.24" gradientUnits="userSpaceOnUse">
<stop stop-color="#323264"/>
<stop offset="0.739583" stop-color="#323264"/>
<stop offset="1" stop-color="#A54B5F"/>
</linearGradient>
<linearGradient id="paint1_linear_23643_13314" x1="295.091" y1="304.946" x2="400.01" y2="359.784" gradientUnits="userSpaceOnUse">
<stop stop-color="#F0145A"/>
<stop offset="1" stop-color="#693264"/>
</linearGradient>
<linearGradient id="paint2_linear_23643_13314" x1="344" y1="422" x2="344" y2="622" gradientUnits="userSpaceOnUse">
<stop offset="0.166667" stop-color="#323264" stop-opacity="0"/>
<stop offset="1" stop-color="#323264"/>
</linearGradient>
<clipPath id="clip0_23643_13314">
<rect width="689" height="622" fill="white"/>
</clipPath>
</defs>
</svg>
